<svg width="20" height="20" viewBox="0 0 20 20" fill="none" xmlns="http://www.w3.org/2000/svg">
<path d="M17.7013 0.517528C17.8253 0.353672 17.9734 0.223501 18.1369 0.134637C18.3003 0.0457723 18.4758 0 18.6531 0C18.8304 0 19.0059 0.0457723 19.1693 0.134637C19.3327 0.223501 19.4808 0.353672 19.6049 0.517528C20.1249 1.19758 20.1322 2.29648 19.6231 2.98829L8.87199 19.4365C8.74992 19.61 8.60179 19.7494 8.43666 19.8462C8.27153 19.9431 8.09287 19.9953 7.91161 19.9997C7.73035 20.0041 7.55031 19.9606 7.38248 19.8719C7.21466 19.7831 7.06259 19.651 6.93558 19.4836L0.39363 10.9041C0.141328 10.5711 0 10.1234 0 9.65699C0 9.19062 0.141328 8.74284 0.39363 8.40985C0.517716 8.24599 0.665814 8.11582 0.829254 8.02696C0.992694 7.93809 1.16819 7.89232 1.34547 7.89232C1.52274 7.89232 1.69824 7.93809 1.86168 8.02696C2.02512 8.11582 2.17322 8.24599 2.29731 8.40985L7.84651 15.688L17.6649 0.569297L17.7013 0.517528Z" fill="#FEFEFE"/>
</svg>
